<svg xmlns="http://www.w3.org/2000/svg" viewBox="0 0 270 240" role="img" aria-labelledby="title desc">
  <title id="title">Capsule Horizon brand mark</title>
  <desc id="desc">A protected space capsule with an orbital horizon and subtle dragon-red curve</desc>
  <rect x="70" y="22" width="128" height="196" rx="64" fill="#07111F"/>
  <rect x="84" y="36" width="100" height="168" rx="50" fill="none" stroke="#C9D1D9" stroke-width="2" opacity=".62"/>
  <circle cx="134" cy="99" r="38" fill="#F5F7FA"/>
  <path d="M102 104c15-15 34-23 55-23 6 0 12 1 17 2-8-14-23-22-40-22-24 0-44 18-47 41 5 2 10 3 15 2Z" fill="#4B2A68" opacity=".9"/>
  <circle cx="156" cy="82" r="4" fill="#C9D1D9"/>
  <path d="M20 126c50-19 115-22 184-5 17 4 33 9 47 15" fill="none" stroke="#9DA9B5" stroke-width="4" stroke-linecap="round"/>
  <circle cx="241" cy="133" r="6" fill="#4B2A68"/>
  <path d="M98 164c14 18 41 25 61 13 10-6 17-16 20-27" fill="none" stroke="#B5121B" stroke-width="7" stroke-linecap="round"/>
  <path d="m174 154 6-17 6 12 13-3-11 12" fill="none" stroke="#B5121B" stroke-width="4" stroke-linecap="round" stroke-linejoin="round"/>
</svg>
